# xmcd
#
# Track frame offsets:
# 150
# 11075
# 25198
# 40673
# 52846
# 63927
# 73084
# 84607
# 96208
# 109135
# 120840
# 131739
# 146304
# 154915
# 170988
# 194627
# 206462
#
# Disc length: 3052 seconds
#
# Revision: 0
# Processed by: cddbd v1.5.1PL2 Copyright (c) Steve Scherf et al.
# Submitted via: Audion 3.0.2 (http://www.panic.com/audion/)
#
DISCID=eb0bea11
DTITLE=BB King - BB King Biography
DYEAR=1900
DGENRE=
TTITLE0=Everything I do is wrong
TTITLE1=She don't move me no more
TTITLE2=My own fault darlin
TTITLE3=Miss Martha King
TTITLE4=When your baby packs up and goes
TTITLE5=My baby's gone
TTITLE6=She's a mean  woman
TTITLE7=Hard working woman
TTITLE8=Some day somewhere
TTITLE9=Shake it up and go
TTITLE10=Gotta find my baby
TTITLE11=BB boogie
TTITLE12=A new way of driving
TTITLE13=It's my own fault baby
TTITLE14=You done lost your good thing now
TTITLE15=Paying the  cost to be the boss
TTITLE16=Everyday I have the blues
EXTD=
EXTT0=
EXTT1=
EXTT2=
EXTT3=
EXTT4=
EXTT5=
EXTT6=
EXTT7=
EXTT8=
EXTT9=
EXTT10=
EXTT11=
EXTT12=
EXTT13=
EXTT14=
EXTT15=
EXTT16=
PLAYORDER=
